HIERARCHY
ROOT joint_Root
{
	OFFSET 0.0 0.0 0.0
	CHANNELS 6 Xposition Yposition Zposition Zrotation Xrotation Yrotation 
	JOINT Hips
	{
		OFFSET -0.726466 93.3139 -2.00062
		CHANNELS 6 Xposition Yposition Zposition Zrotation Xrotation Yrotation 
		JOINT Spine
		{
			OFFSET 15.7357 0.0 0.0
			CHANNELS 6 Xposition Yposition Zposition Zrotation Xrotation Yrotation 
			JOINT Chest
			{
				OFFSET 8.98455 -0.406207 0.0
				CHANNELS 6 Xposition Yposition Zposition Zrotation Xrotation Yrotation 
				JOINT Neck
				{
					OFFSET 16.3773 0.0 0.0
					CHANNELS 6 Xposition Yposition Zposition Zrotation Xrotation Yrotation 
					JOINT Head
					{
						OFFSET 6.45672 0.0 0.0
						CHANNELS 6 Xposition Yposition Zposition Zrotation Xrotation Yrotation 
						End Site
						{
							OFFSET 0.0 0.0 0.0
						}
					}
				}
				JOINT Shoulder_L
				{
					OFFSET 12.9942 -0.242716 4.98039
					CHANNELS 6 Xposition Yposition Zposition Zrotation Xrotation Yrotation 
					JOINT UpperArm_L
					{
						OFFSET 5.34809 0.0 0.0
						CHANNELS 6 Xposition Yposition Zposition Zrotation Xrotation Yrotation 
						JOINT LowerArm_L
						{
							OFFSET 24.3286 1.87007e-05 0.0
							CHANNELS 6 Xposition Yposition Zposition Zrotation Xrotation Yrotation 
							JOINT Hand_L
							{
								OFFSET 22.2916 0.0 0.0
								CHANNELS 6 Xposition Yposition Zposition Zrotation Xrotation Yrotation 
								End Site
								{
									OFFSET 0.0 0.0 0.0
								}
							}
						}
					}
				}
				JOINT Shoulder_R
				{
					OFFSET 12.9945 -0.242716 -4.98039
					CHANNELS 6 Xposition Yposition Zposition Zrotation Xrotation Yrotation 
					JOINT UpperArm_R
					{
						OFFSET -5.34813 0.0 0.0
						CHANNELS 6 Xposition Yposition Zposition Zrotation Xrotation Yrotation 
						JOINT LowerArm_R
						{
							OFFSET -24.3289 0.000322201 0.0
							CHANNELS 6 Xposition Yposition Zposition Zrotation Xrotation Yrotation 
							JOINT Hand_R
							{
								OFFSET -22.2915 -0.000108084 0.0
								CHANNELS 6 Xposition Yposition Zposition Zrotation Xrotation Yrotation 
								End Site
								{
									OFFSET 0.0 0.0 0.0
								}
							}
						}
					}
				}
			}
		}
		JOINT UpperLeg_L
		{
			OFFSET -2.19248 -6.46944 0.0
			CHANNELS 6 Xposition Yposition Zposition Zrotation Xrotation Yrotation 
			JOINT LowerLeg_L
			{
				OFFSET 39.0811 0.0 -1.23785e-05
				CHANNELS 6 Xposition Yposition Zposition Zrotation Xrotation Yrotation 
				JOINT Foot_L
				{
					OFFSET 40.9854 0.0 -1.26872e-05
					CHANNELS 6 Xposition Yposition Zposition Zrotation Xrotation Yrotation 
					JOINT Toes_L
					{
						OFFSET 11.7543 0.0 0.0
						CHANNELS 6 Xposition Yposition Zposition Zrotation Xrotation Yrotation 
						End Site
						{
							OFFSET 0.0 0.0 0.0
						}
					}
				}
			}
		}
		JOINT UpperLeg_R
		{
			OFFSET -2.19251 6.46944 0.0
			CHANNELS 6 Xposition Yposition Zposition Zrotation Xrotation Yrotation 
			JOINT LowerLeg_R
			{
				OFFSET -39.0811 -0.00228153 -0.0401928
				CHANNELS 6 Xposition Yposition Zposition Zrotation Xrotation Yrotation 
				JOINT Foot_R
				{
					OFFSET -40.9854 0.0 0.0
					CHANNELS 6 Xposition Yposition Zposition Zrotation Xrotation Yrotation 
					JOINT Toes_R
					{
						OFFSET -11.7543 0.0 0.0
						CHANNELS 6 Xposition Yposition Zposition Zrotation Xrotation Yrotation 
						End Site
						{
							OFFSET 0.0 0.0 0.0
						}
					}
				}
			}
		}
	}
}
MOTION
Frames:	8
Frame Time:	0.0333333
0.000000 0.000000 0.000000 0.000000 0.000000 -0.000000 -190.973000 88.904000 191.693000 76.253500 84.055100 14.328700 15.735700 0.000005 -0.000001 98.643600 82.009500 -99.740700 8.984550 -0.406207 -0.000000 8.062650 2.388510 -2.360660 16.377300 -0.000001 -0.000001 1.364950 0.271686 1.019410 6.456720 -0.000001 -0.000000 -2.957800 -1.197610 7.700450 12.994200 -0.242716 4.980390 -88.457100 -4.025810 -69.010200 5.348090 -0.000007 -0.000001 -59.551600 29.440400 -10.900800 24.328600 0.000019 0.000005 -1.751720 -2.145470 -39.237000 22.291600 -0.000001 0.000005 -1.325930 5.573010 -9.842710 12.994500 -0.242716 -4.980390 89.063700 2.857520 -71.850300 -5.348130 -0.000001 -0.000004 -53.810400 29.228200 -16.861600 -24.328900 0.000322 -0.000009 -7.406810 -10.803300 -34.739500 -22.291500 -0.000108 -0.000004 -1.856780 5.515040 -7.151680 -2.192480 -6.469440 -0.000000 -179.037000 -9.694890 -21.695000 39.081100 -0.000007 -0.000012 -0.226725 0.254469 41.700700 40.985400 -0.000006 -0.000013 0.849593 -2.097690 -69.820400 11.754300 -0.000000 0.000003 -0.000087 -0.000909 -16.612500 -2.192510 6.469440 -0.000001 172.716000 9.715140 172.280000 -39.081100 -0.002282 -0.040193 0.242781 -0.123035 62.819500 -40.985400 0.000008 0.000006 3.922340 -6.433550 -49.757400 -11.754300 -0.000006 -0.000006 -0.020129 -0.168000 -23.437200
0.000000 0.000000 0.000000 0.000000 0.000000 -0.000000 -188.081000 89.755100 191.635000 60.374000 85.290600 30.631900 15.735700 0.000005 -0.000001 93.646000 82.142500 -94.157900 8.984550 -0.406207 -0.000000 7.922660 0.994424 -1.091670 16.377300 -0.000001 -0.000001 2.412800 -0.200105 0.818098 6.456720 -0.000001 -0.000000 -1.864330 -0.449535 7.798620 12.994200 -0.242716 4.980390 -88.458200 -4.189590 -69.774500 5.348090 -0.000007 -0.000001 -56.339600 31.311800 -16.126000 24.328600 0.000019 0.000005 -2.367700 -2.678010 -41.509100 22.291600 -0.000001 0.000005 -1.112070 5.575430 -9.968770 12.994500 -0.242716 -4.980390 89.012100 2.815770 -70.658100 -5.348130 -0.000001 -0.000004 -55.139100 29.850600 -13.383200 -24.328900 0.000322 -0.000009 -6.908080 -9.991090 -34.923600 -22.291500 -0.000108 -0.000004 -1.898060 5.518610 -7.302410 -2.192480 -6.469440 -0.000000 -177.948000 -9.084130 -17.521400 39.081100 -0.000007 -0.000012 -0.203548 0.255465 38.547300 40.985400 -0.000006 -0.000013 1.050170 -1.177790 -70.384200 11.754300 -0.000000 0.000003 -0.000083 -0.000880 -16.611500 -2.192510 6.469440 -0.000001 174.198000 12.360100 169.057000 -39.081100 -0.002282 -0.040193 0.263177 -0.129883 63.455800 -40.985400 0.000008 0.000006 2.166800 -4.865160 -50.816200 -11.754300 -0.000006 -0.000006 -0.020013 -0.167361 -23.410800
0.000000 0.000000 0.000000 0.000000 0.000000 -0.000000 -185.360000 90.484500 191.564000 44.217000 85.867700 47.044900 15.735700 0.000005 -0.000001 89.246500 82.196600 -89.291500 8.984550 -0.406207 -0.000000 7.839370 -0.204415 -0.075902 16.377300 -0.000001 -0.000001 3.510210 -0.623142 0.594374 6.456720 -0.000001 -0.000000 -0.965155 0.136435 7.738930 12.994200 -0.242716 4.980390 -88.394200 -4.526130 -70.442300 5.348090 -0.000007 -0.000001 -53.272900 32.195400 -21.277800 24.328600 0.000019 0.000005 -1.719160 -1.821940 -43.356800 22.291600 -0.000001 0.000005 -0.996855 5.571340 -9.757390 12.994500 -0.242716 -4.980390 89.051600 2.537110 -69.495800 -5.348130 -0.000001 -0.000004 -56.441900 30.250000 -10.132200 -24.328900 0.000322 -0.000009 -6.288530 -8.885780 -35.500700 -22.291500 -0.000108 -0.000004 -1.508880 5.520620 -7.387920 -2.192480 -6.469440 -0.000000 -177.130000 -8.202380 -13.542800 39.081100 -0.000007 -0.000012 -0.192221 0.273301 35.120300 40.985400 -0.000006 -0.000013 1.036490 -0.748050 -70.664300 11.754300 -0.000000 0.000003 -0.000077 -0.000825 -16.609400 -2.192510 6.469440 -0.000001 175.695000 14.831400 165.986000 -39.081100 -0.002282 -0.040193 0.245128 -0.131350 61.502300 -40.985400 0.000008 0.000006 1.639180 -3.826890 -52.586900 -11.754300 -0.000006 -0.000006 -0.019158 -0.162583 -23.214100
0.000000 0.000000 0.000000 0.000000 0.000000 -0.000000 -182.778000 91.016100 191.540000 30.454900 85.813200 61.035400 15.735700 0.000005 -0.000001 85.687300 82.119200 -85.276400 8.984550 -0.406207 -0.000000 7.956560 -1.179550 0.903039 16.377300 -0.000001 -0.000001 4.527700 -0.989602 0.446999 6.456720 -0.000001 -0.000000 -0.386081 0.661900 7.373590 12.994200 -0.242716 4.980390 -88.307200 -4.905080 -70.933200 5.348090 -0.000007 -0.000001 -49.964100 32.628300 -26.320000 24.328600 0.000019 0.000005 -0.663370 -0.664838 -44.972200 22.291600 -0.000001 0.000005 -0.786160 5.576580 -10.028700 12.994500 -0.242716 -4.980390 89.152100 2.139590 -68.374800 -5.348130 -0.000001 -0.000004 -57.273800 30.965500 -7.429830 -24.328900 0.000322 -0.000009 -5.467400 -7.479580 -36.323000 -22.291500 -0.000108 -0.000004 -0.849423 5.527960 -7.703780 -2.192480 -6.469440 -0.000000 -176.275000 -7.558320 -9.843020 39.081100 -0.000007 -0.000012 -0.186878 0.299421 31.969900 40.985400 -0.000006 -0.000013 0.899827 -0.588017 -70.969100 11.754300 -0.000000 0.000003 -0.000107 -0.001092 -16.619400 -2.192510 6.469440 -0.000001 177.571000 16.457800 163.259000 -39.081100 -0.002282 -0.040193 0.196240 -0.124711 57.133900 -40.985400 0.000008 0.000006 1.314770 -3.557430 -54.166600 -11.754300 -0.000006 -0.000006 -0.019519 -0.164610 -23.297500
0.000000 0.000000 0.000000 0.000000 0.000000 -0.000000 -180.410000 91.302300 191.567000 21.349500 85.587400 70.051400 15.735700 0.000005 -0.000001 82.378100 81.981500 -81.615200 8.984550 -0.406207 -0.000000 8.148040 -2.115150 1.675080 16.377300 -0.000001 -0.000001 5.283750 -1.297180 0.233364 6.456720 -0.000001 -0.000000 -0.167116 1.359320 7.144880 12.994200 -0.242716 4.980390 -88.218900 -5.235170 -71.180200 5.348090 -0.000007 -0.000001 -46.301800 32.414500 -30.861300 24.328600 0.000019 0.000005 0.886644 0.812311 -47.480000 22.291600 -0.000001 0.000005 0.034184 5.572860 -9.841760 12.994500 -0.242716 -4.980390 89.223200 1.865270 -67.384300 -5.348130 -0.000001 -0.000004 -57.656300 31.830700 -5.275020 -24.328900 0.000322 -0.000009 -3.628490 -4.764170 -37.359200 -22.291500 -0.000108 -0.000004 0.194144 5.540490 -8.262030 -2.192480 -6.469440 -0.000000 -175.633000 -7.106210 -7.000600 39.081100 -0.000007 -0.000012 -0.166282 0.294000 29.492100 40.985400 -0.000006 -0.000013 0.749438 -0.507517 -71.416300 11.754300 -0.000000 0.000003 -0.000148 -0.001433 -16.632000 -2.192510 6.469440 -0.000001 179.580000 17.485400 160.649000 -39.081100 -0.002282 -0.040193 0.137613 -0.110164 50.652700 -40.985400 0.000008 0.000006 0.971004 -3.576750 -55.423800 -11.754300 -0.000006 -0.000006 -0.019357 -0.163700 -23.260000
0.000000 0.000000 0.000000 0.000000 0.000000 -0.000000 -178.183000 91.294000 191.653000 14.300400 85.531700 76.923200 15.735700 0.000005 -0.000001 79.508500 81.716200 -78.524100 8.984550 -0.406207 -0.000000 8.559960 -2.995540 2.191420 16.377300 -0.000001 -0.000001 5.831970 -1.366130 0.174527 6.456720 -0.000001 -0.000000 -0.226713 1.841950 6.845480 12.994200 -0.242716 4.980390 -88.183400 -5.427540 -71.462700 5.348090 -0.000007 -0.000001 -42.655800 31.441600 -34.584700 24.328600 0.000019 0.000005 1.958020 1.610860 -50.566500 22.291600 -0.000001 0.000005 1.595680 5.572180 -9.796320 12.994500 -0.242716 -4.980390 89.186400 1.869750 -66.479500 -5.348130 -0.000001 -0.000004 -57.701800 32.527200 -3.471000 -24.328900 0.000322 -0.000009 -2.001580 -2.514960 -38.523200 -22.291500 -0.000108 -0.000004 1.017640 5.547280 -8.578260 -2.192480 -6.469440 -0.000000 -175.241000 -6.597920 -4.891430 39.081100 -0.000007 -0.000012 -0.164412 0.308031 28.091400 40.985400 -0.000006 -0.000013 0.536382 -0.501558 -72.298600 11.754300 -0.000000 0.000003 -0.000177 -0.001669 -16.640700 -2.192510 6.469440 -0.000001 -178.618000 18.399700 158.466000 -39.081100 -0.002282 -0.040193 0.086977 -0.091446 42.469400 -40.985400 0.000008 0.000006 0.687028 -3.456030 -55.356000 -11.754300 -0.000006 -0.000006 -0.018933 -0.161305 -23.161500
0.000000 0.000000 0.000000 0.000000 0.000000 -0.000000 -176.009000 91.012000 191.800000 9.829930 85.752500 81.024300 15.735700 0.000005 -0.000001 77.124300 81.362900 -76.057600 8.984550 -0.406207 -0.000000 9.125490 -3.816120 2.436840 16.377300 -0.000001 -0.000001 6.164420 -1.386880 0.037948 6.456720 -0.000001 -0.000000 -0.565163 2.418430 6.561610 12.994200 -0.242716 4.980390 -88.172200 -5.522570 -71.654200 5.348090 -0.000007 -0.000001 -39.574000 29.650300 -37.450900 24.328600 0.000019 0.000005 1.993870 1.475460 -53.517700 22.291600 -0.000001 0.000005 2.652390 5.579160 -10.165600 12.994500 -0.242716 -4.980390 89.114700 1.962890 -65.718400 -5.348130 -0.000001 -0.000004 -57.761000 32.733400 -2.082940 -24.328900 0.000322 -0.000009 -1.496480 -1.815730 -39.485000 -22.291500 -0.000108 -0.000004 1.089650 5.548980 -8.658000 -2.192480 -6.469440 -0.000000 -175.166000 -6.116710 -3.440010 39.081100 -0.000007 -0.000012 -0.200417 0.382477 27.654800 40.985400 -0.000006 -0.000013 0.260414 -0.543736 -73.674500 11.754300 -0.000000 0.000003 -0.000155 -0.001489 -16.634100 -2.192510 6.469440 -0.000001 -177.120000 18.902900 156.685000 -39.081100 -0.002282 -0.040193 0.047510 -0.068232 32.943100 -40.985400 0.000008 0.000006 0.410551 -2.994130 -54.092100 -11.754300 -0.000006 -0.000006 -0.019189 -0.162754 -23.221100
0.000000 0.000000 0.000000 0.000000 0.000000 -0.000000 -173.775000 90.527300 191.989000 5.407210 86.177100 85.091800 15.735700 0.000005 -0.000001 75.222000 80.932000 -74.167900 8.984550 -0.406207 -0.000000 9.836400 -4.578840 2.501710 16.377300 -0.000001 -0.000001 6.428880 -1.339820 -0.029285 6.456720 -0.000001 -0.000000 -1.037420 2.856920 6.299110 12.994200 -0.242716 4.980390 -88.136900 -5.642860 -71.694500 5.348090 -0.000007 -0.000001 -37.289800 27.509100 -39.499800 24.328600 0.000019 0.000005 1.358610 0.913572 -56.095600 22.291600 -0.000001 0.000005 3.394610 5.591810 -10.861200 12.994500 -0.242716 -4.980390 89.044000 2.070970 -65.215400 -5.348130 -0.000001 -0.000004 -58.205500 32.095200 -0.744654 -24.328900 0.000322 -0.000009 -1.420980 -1.692110 -40.009700 -22.291500 -0.000108 -0.000004 1.184420 5.553840 -8.888240 -2.192480 -6.469440 -0.000000 -175.281000 -5.928980 -2.262680 39.081100 -0.000007 -0.000012 -0.218486 0.413374 27.858800 40.985400 -0.000006 -0.000013 0.016554 -0.382255 -75.400100 11.754300 -0.000000 0.000003 -0.000160 -0.001532 -16.635700 -2.192510 6.469440 -0.000001 -175.921000 19.244500 155.456000 -39.081100 -0.002282 -0.040193 0.022812 -0.046668 22.672400 -40.985400 0.000008 0.000006 -0.138580 -1.656730 -51.562600 -11.754300 -0.000006 -0.000006 -0.018450 -0.158546 -23.047900
